<svg width="20" height="20" viewBox="0 0 20 20" fill="none" xmlns="http://www.w3.org/2000/svg">
  <path
    d="M11.745 7.90892L12.9631 5.81908L10.525 1.63939L11.745 7.90892ZM8.16096 8.72886L6.53693 5.94507C6.49292 5.87107 6.48893 5.77508 6.53493 5.69509L9.783 0.125508C9.879 -0.0384793 10.119 -0.0444783 10.217 0.123509L13.4651 5.69309C13.5091 5.76708 13.5131 5.86307 13.4671 5.94307L11.841 8.72886C11.799 8.80285 11.717 8.85085 11.625 8.85085H8.38897C8.29896 8.85085 8.20896 8.81285 8.16096 8.72886ZM5.2449 13.4805L6.46292 11.3907L4.02487 7.21097L5.2449 13.4805ZM1.65882 14.3024L0.0347883 11.5186C-0.00921268 11.4446 -0.0132129 11.3487 0.0327881 11.2687L3.28086 5.69909C3.37686 5.5351 3.61686 5.5291 3.71487 5.69709L6.96293 11.2687C7.00694 11.3427 7.01094 11.4387 6.96494 11.5186L5.3409 14.3024C5.2989 14.3764 5.2169 14.4244 5.1249 14.4244H1.88883C1.79883 14.4244 1.70882 14.3864 1.65882 14.3024ZM11.745 19.0541L12.9631 16.9642L10.525 12.7845L11.745 19.0541ZM8.15896 19.876L6.53493 17.0922C6.49093 17.0182 6.48692 16.9222 6.53293 16.8422L9.781 11.2727C9.877 11.1087 10.117 11.1027 10.215 11.2707L13.4631 16.8422C13.5071 16.9162 13.5111 17.0122 13.4651 17.0922L11.839 19.878C11.797 19.952 11.715 20 11.623 20H8.38696C8.29896 19.998 8.20896 19.958 8.15896 19.876ZM18.2452 13.4805L19.4632 11.3907L17.0251 7.21097L18.2452 13.4805ZM14.6611 14.3024L13.0371 11.5186C12.9931 11.4446 12.9891 11.3487 13.0351 11.2687L16.2831 5.69909C16.3791 5.5351 16.6191 5.5291 16.7171 5.69709L19.9652 11.2687C20.0092 11.3427 20.0132 11.4387 19.9672 11.5186L18.3412 14.3044C18.2992 14.3784 18.2172 14.4264 18.1252 14.4264H14.8891C14.8011 14.4244 14.7091 14.3864 14.6611 14.3024Z"
    fill="#D2D1D4" />
</svg>